<?xml version="1.0" encoding="UTF-8"?>
<svg xmlns="http://www.w3.org/2000/svg" id="a" width="65px" height="65px" viewBox="0 0 65 65"><path d="m59,34.23c0,4.38-1.08,8.49-2.98,12.04-3.94,7.43-11.43,12.45-20.02,12.45-.42,0-.83-.01-1.25-.04l-18.38-11.68c-2.14-3.72-3.37-8.09-3.37-12.77,0-9.7,5.29-18.08,12.97-22.04,1.69-.88,3.5-1.54,5.39-1.95,1.5-.33,2.67-2.24,4.26-2.24,1.41,0,3.17,1.87,4.5,2.13,10.74,2.07,18.88,12.07,18.88,24.1Z" fill="#3dc13d"/><path d="m59,34.23c0,4.38-1.08,8.49-2.98,12.04-1.66.86-3.44,1.51-5.29,1.93-1.53.34-3.11.52-4.73.52-12.7,0-23-10.97-23-24.49,0-2.43.33-4.78.96-6.99.49-1.78,1.17-3.47,2.01-5.05,1.69-.88,3.5-1.54,5.39-1.95,1.5-.33,2.67-2.24,4.26-2.24,1.41,0,3.17,1.87,4.5,2.13,10.74,2.07,18.88,12.07,18.88,24.1Z" fill="#53ea53"/><path d="m58,35.23c-.55,0-1-.45-1-1,0-9.64-5.71-18.2-14.2-21.29-.52-.19-.79-.76-.6-1.28.19-.52.76-.79,1.28-.6,9.28,3.38,15.52,12.69,15.52,23.17,0,.55-.45,1-1,1Z" fill="#85f985"/><path d="m50.73,48.2c-3.18,3.63-7.55,6.09-12.47,6.67l-17.97-7.87c-2.69-3.58-4.29-8.09-4.29-13,0-6.85,3.12-12.93,7.96-16.76-.63,2.21-.96,4.56-.96,6.99,0,13.52,10.3,24.49,23,24.49,1.62,0,3.2-.18,4.73-.52Z" fill="#d3e5e4"/><path d="m56,34c0,5.48-2,10.47-5.27,14.2-1.53.34-3.11.52-4.73.52-1.28,0-2.53-.11-3.75-.33-1.86-.32-3.64-.88-5.32-1.65-1.02-.47-2-1.01-2.93-1.62-1.34-.87-2.59-1.89-3.71-3.03-.75-.72-1.43-1.5-2.05-2.32-.91-1.17-1.72-2.43-2.41-3.77-.65-1.27-1.21-2.61-1.64-4-.49-1.54-.84-3.15-1.02-4.82-.11-.96-.17-1.95-.17-2.95,0-2.43.33-4.78.96-6.99,3.35-2.66,7.52-4.24,12.04-4.24,11.05,0,20,9.4,20,21Z" fill="#f5f7f7"/><path d="m24.19,32h-2.19c.16-1.71.56-3.33,1.17-4.82.18,1.67.53,3.28,1.02,4.82Z" fill="#3dc13d"/><path d="m31.76,32h-7.57c-.49-1.54-.84-3.15-1.02-4.82.4-1,.89-1.94,1.46-2.81l7.13,7.63Z" fill="#53ea53"/><path d="m28.24,39.77l-3.61,3.87c-1.42-2.18-2.36-4.79-2.63-7.64h3.83c.69,1.34,1.5,2.6,2.41,3.77Z" fill="#3dc13d"/><path d="m31.76,36l-3.52,3.77c-.91-1.17-1.72-2.43-2.41-3.77h5.93Z" fill="#53ea53"/><path d="m36.93,18.24v12.01l7.94-8.18c-2.18-2.08-4.92-3.47-7.94-3.83Z" fill="#53ea53"/><path d="m34,18c-2.81.36-5.36,1.75-7.39,3.83l7.39,8.19v-12.02Z" fill="#53ea53"/><path d="m39.34,32h10.49c-.29-2.77-1.3-5.3-2.83-7.41l-7.66,7.41Z" fill="#53ea53"/><path d="m39.34,36l7.66,7.86c1.53-2.24,2.54-4.92,2.83-7.86h-10.49Z" fill="#53ea53"/><path d="m34,45.12v2.26l-6.27-.18c-.39-.32-.76-.67-1.12-1.03l3.68-4.08c1.12,1.14,2.37,2.16,3.71,3.03Z" fill="#3dc13d"/><path d="m34,37.98v7.14c-1.34-.87-2.59-1.89-3.71-3.03l3.71-4.11Z" fill="#53ea53"/><path d="m42.25,48.39c-.57.34-1.16.64-1.77.89l-3.55-2.28v-.26c1.68.77,3.46,1.33,5.32,1.65Z" fill="#3dc13d"/><path d="m44.87,46.39c-.8.77-1.68,1.44-2.62,2-1.86-.32-3.64-.88-5.32-1.65v-8.54l7.94,8.19Z" fill="#53ea53"/><path d="m8,4c-.55,0-1-.45-1-1V1c0-.55.45-1,1-1s1,.45,1,1v2c0,.55-.45,1-1,1Z" fill="#fec502"/><path d="m8,10c-.55,0-1-.45-1-1v-2c0-.55.45-1,1-1s1,.45,1,1v2c0,.55-.45,1-1,1Z" fill="#fec502"/><path d="m6,6h-2c-.55,0-1-.45-1-1s.45-1,1-1h2c.55,0,1,.45,1,1s-.45,1-1,1Z" fill="#fec502"/><path d="m12,6h-2c-.55,0-1-.45-1-1s.45-1,1-1h2c.55,0,1,.45,1,1s-.45,1-1,1Z" fill="#fec502"/><circle cx="16.24" cy="11.07" r="1.07" fill="#ffa50a"/><path d="m40.67,47c0,8.84-8.36,16-18.67,16S3.33,55.84,3.33,47h37.33Z" fill="#53ea53"/><path d="m37,47c0,7.1-6.72,12.86-15,12.86s-15-5.76-15-12.86h30Z" fill="#85f985"/><path d="m22,52c-.55,0-1-.45-1-1v-1c0-.55.45-1,1-1s1,.45,1,1v1c0,.55-.45,1-1,1Z" fill="#783c28"/><path d="m27,52c-.26,0-.51-.1-.71-.29l-1-1c-.39-.39-.39-1.02,0-1.41s1.02-.39,1.41,0l1,1c.39.39.39,1.02,0,1.41-.2.2-.45.29-.71.29Z" fill="#783c28"/><path d="m17,52c-.26,0-.51-.1-.71-.29-.39-.39-.39-1.02,0-1.41l1-1c.39-.39,1.02-.39,1.41,0s.39,1.02,0,1.41l-1,1c-.2.2-.45.29-.71.29Z" fill="#783c28"/></svg>
